<mxfile host="app.diagrams.net" modified="2022-04-10T07:39:58.072Z" agent="5.0 (Windows NT 10.0; Win64; x64) AppleWebKit/537.36 (KHTML, like Gecko) Chrome/100.0.4896.75 Safari/537.36 Edg/100.0.1185.36" etag="phDMAblYYQTHktXSHIwk" version="17.4.2" type="github">
  <diagram id="JkiFyP9Au7jhmk_9FQFW" name="Page-1">
    <mxGraphModel dx="955" dy="1114" grid="1" gridSize="10" guides="1" tooltips="1" connect="1" arrows="1" fold="1" page="1" pageScale="1" pageWidth="827" pageHeight="1169" math="0" shadow="0">
      <root>
        <mxCell id="0" />
        <mxCell id="1" parent="0" />
        <mxCell id="3yqEsCJhF88DXLbGnoGs-1" value="User" style="shape=umlActor;verticalLabelPosition=bottom;verticalAlign=top;html=1;outlineConnect=0;" vertex="1" parent="1">
          <mxGeometry x="90" y="140" width="30" height="60" as="geometry" />
        </mxCell>
        <mxCell id="3yqEsCJhF88DXLbGnoGs-12" value="find book" style="ellipse;whiteSpace=wrap;html=1;" vertex="1" parent="1">
          <mxGeometry x="330" y="20" width="120" height="60" as="geometry" />
        </mxCell>
        <mxCell id="3yqEsCJhF88DXLbGnoGs-20" value="find CD" style="ellipse;whiteSpace=wrap;html=1;" vertex="1" parent="1">
          <mxGeometry x="460" y="20" width="120" height="60" as="geometry" />
        </mxCell>
        <mxCell id="3yqEsCJhF88DXLbGnoGs-30" value="" style="endArrow=block;endSize=16;endFill=0;html=1;rounded=0;exitX=0.5;exitY=1;exitDx=0;exitDy=0;entryX=0.5;entryY=0;entryDx=0;entryDy=0;" edge="1" parent="1" source="3yqEsCJhF88DXLbGnoGs-12" target="3yqEsCJhF88DXLbGnoGs-32">
          <mxGeometry width="160" relative="1" as="geometry">
            <mxPoint x="180" y="320" as="sourcePoint" />
            <mxPoint x="290" y="160" as="targetPoint" />
          </mxGeometry>
        </mxCell>
        <mxCell id="3yqEsCJhF88DXLbGnoGs-31" value="" style="endArrow=block;endSize=16;endFill=0;html=1;rounded=0;exitX=0.5;exitY=1;exitDx=0;exitDy=0;entryX=0.5;entryY=0;entryDx=0;entryDy=0;" edge="1" parent="1" source="3yqEsCJhF88DXLbGnoGs-20" target="3yqEsCJhF88DXLbGnoGs-32">
          <mxGeometry width="160" relative="1" as="geometry">
            <mxPoint x="470" y="340" as="sourcePoint" />
            <mxPoint x="290" y="160" as="targetPoint" />
          </mxGeometry>
        </mxCell>
        <mxCell id="3yqEsCJhF88DXLbGnoGs-32" value="find product" style="ellipse;whiteSpace=wrap;html=1;" vertex="1" parent="1">
          <mxGeometry x="400" y="140" width="120" height="60" as="geometry" />
        </mxCell>
        <mxCell id="3yqEsCJhF88DXLbGnoGs-33" value="choose a category" style="ellipse;whiteSpace=wrap;html=1;" vertex="1" parent="1">
          <mxGeometry x="210" y="100" width="120" height="60" as="geometry" />
        </mxCell>
        <mxCell id="3yqEsCJhF88DXLbGnoGs-34" value="search" style="ellipse;whiteSpace=wrap;html=1;" vertex="1" parent="1">
          <mxGeometry x="210" y="180" width="120" height="60" as="geometry" />
        </mxCell>
        <mxCell id="3yqEsCJhF88DXLbGnoGs-35" value="" style="endArrow=none;html=1;rounded=0;entryX=0;entryY=0.5;entryDx=0;entryDy=0;" edge="1" parent="1" target="3yqEsCJhF88DXLbGnoGs-33">
          <mxGeometry width="50" height="50" relative="1" as="geometry">
            <mxPoint x="140" y="170" as="sourcePoint" />
            <mxPoint x="480" y="330" as="targetPoint" />
          </mxGeometry>
        </mxCell>
        <mxCell id="3yqEsCJhF88DXLbGnoGs-36" value="" style="endArrow=none;html=1;rounded=0;entryX=0;entryY=0.5;entryDx=0;entryDy=0;" edge="1" parent="1" target="3yqEsCJhF88DXLbGnoGs-34">
          <mxGeometry width="50" height="50" relative="1" as="geometry">
            <mxPoint x="140" y="170" as="sourcePoint" />
            <mxPoint x="480" y="330" as="targetPoint" />
          </mxGeometry>
        </mxCell>
        <mxCell id="3yqEsCJhF88DXLbGnoGs-39" style="edgeStyle=orthogonalEdgeStyle;rounded=0;orthogonalLoop=1;jettySize=auto;html=1;exitX=0.5;exitY=1;exitDx=0;exitDy=0;" edge="1" parent="1" source="3yqEsCJhF88DXLbGnoGs-34" target="3yqEsCJhF88DXLbGnoGs-34">
          <mxGeometry relative="1" as="geometry" />
        </mxCell>
        <mxCell id="3yqEsCJhF88DXLbGnoGs-40" value="" style="endArrow=none;html=1;rounded=0;entryX=1;entryY=0.5;entryDx=0;entryDy=0;exitX=0;exitY=0.5;exitDx=0;exitDy=0;" edge="1" parent="1" source="3yqEsCJhF88DXLbGnoGs-41" target="3yqEsCJhF88DXLbGnoGs-32">
          <mxGeometry width="50" height="50" relative="1" as="geometry">
            <mxPoint x="590" y="170" as="sourcePoint" />
            <mxPoint x="480" y="330" as="targetPoint" />
          </mxGeometry>
        </mxCell>
        <mxCell id="3yqEsCJhF88DXLbGnoGs-41" value="read the summary" style="ellipse;whiteSpace=wrap;html=1;" vertex="1" parent="1">
          <mxGeometry x="560" y="140" width="120" height="60" as="geometry" />
        </mxCell>
        <mxCell id="3yqEsCJhF88DXLbGnoGs-42" value="" style="endArrow=block;endSize=16;endFill=0;html=1;rounded=0;exitX=1;exitY=0.5;exitDx=0;exitDy=0;" edge="1" parent="1" source="3yqEsCJhF88DXLbGnoGs-34">
          <mxGeometry width="160" relative="1" as="geometry">
            <mxPoint x="400" y="90" as="sourcePoint" />
            <mxPoint x="400" y="170" as="targetPoint" />
          </mxGeometry>
        </mxCell>
        <mxCell id="3yqEsCJhF88DXLbGnoGs-43" value="" style="endArrow=block;endSize=16;endFill=0;html=1;rounded=0;exitX=1;exitY=0.5;exitDx=0;exitDy=0;entryX=0;entryY=0.5;entryDx=0;entryDy=0;" edge="1" parent="1" source="3yqEsCJhF88DXLbGnoGs-33" target="3yqEsCJhF88DXLbGnoGs-32">
          <mxGeometry width="160" relative="1" as="geometry">
            <mxPoint x="410" y="100" as="sourcePoint" />
            <mxPoint x="480" y="160" as="targetPoint" />
          </mxGeometry>
        </mxCell>
        <mxCell id="3yqEsCJhF88DXLbGnoGs-44" value="click any product" style="ellipse;whiteSpace=wrap;html=1;" vertex="1" parent="1">
          <mxGeometry x="720" y="40" width="120" height="60" as="geometry" />
        </mxCell>
        <mxCell id="3yqEsCJhF88DXLbGnoGs-76" style="endArrow=none;html=1;rounded=0;exitX=0.5;exitY=1;exitDx=0;exitDy=0;entryX=0.5;entryY=0;entryDx=0;entryDy=0;" edge="1" parent="1" source="3yqEsCJhF88DXLbGnoGs-46" target="3yqEsCJhF88DXLbGnoGs-47">
          <mxGeometry relative="1" as="geometry" />
        </mxCell>
        <mxCell id="3yqEsCJhF88DXLbGnoGs-46" value="read the full description" style="ellipse;whiteSpace=wrap;html=1;" vertex="1" parent="1">
          <mxGeometry x="720" y="140" width="120" height="60" as="geometry" />
        </mxCell>
        <mxCell id="3yqEsCJhF88DXLbGnoGs-47" value="click any summery" style="ellipse;whiteSpace=wrap;html=1;" vertex="1" parent="1">
          <mxGeometry x="720" y="240" width="120" height="60" as="geometry" />
        </mxCell>
        <mxCell id="3yqEsCJhF88DXLbGnoGs-49" value="click &#39;add to basket&#39; button" style="ellipse;whiteSpace=wrap;html=1;" vertex="1" parent="1">
          <mxGeometry x="720" y="340" width="120" height="60" as="geometry" />
        </mxCell>
        <mxCell id="3yqEsCJhF88DXLbGnoGs-53" value="read shopping basket list" style="ellipse;whiteSpace=wrap;html=1;" vertex="1" parent="1">
          <mxGeometry x="560" y="340" width="120" height="60" as="geometry" />
        </mxCell>
        <mxCell id="3yqEsCJhF88DXLbGnoGs-54" value="Remove an item" style="ellipse;whiteSpace=wrap;html=1;" vertex="1" parent="1">
          <mxGeometry x="490" y="460" width="120" height="60" as="geometry" />
        </mxCell>
        <mxCell id="3yqEsCJhF88DXLbGnoGs-55" value="Change an item" style="ellipse;whiteSpace=wrap;html=1;" vertex="1" parent="1">
          <mxGeometry x="650" y="460" width="120" height="60" as="geometry" />
        </mxCell>
        <mxCell id="3yqEsCJhF88DXLbGnoGs-56" value="Proceed to checkout" style="ellipse;whiteSpace=wrap;html=1;" vertex="1" parent="1">
          <mxGeometry x="400" y="340" width="120" height="60" as="geometry" />
        </mxCell>
        <mxCell id="3yqEsCJhF88DXLbGnoGs-81" style="endArrow=none;html=1;rounded=0;exitX=0;exitY=0.5;exitDx=0;exitDy=0;entryX=1;entryY=0.5;entryDx=0;entryDy=0;" edge="1" parent="1" source="3yqEsCJhF88DXLbGnoGs-57" target="3yqEsCJhF88DXLbGnoGs-58">
          <mxGeometry relative="1" as="geometry" />
        </mxCell>
        <mxCell id="3yqEsCJhF88DXLbGnoGs-57" value="read order list" style="ellipse;whiteSpace=wrap;html=1;" vertex="1" parent="1">
          <mxGeometry x="240" y="340" width="120" height="60" as="geometry" />
        </mxCell>
        <mxCell id="3yqEsCJhF88DXLbGnoGs-58" value="confirm order" style="ellipse;whiteSpace=wrap;html=1;" vertex="1" parent="1">
          <mxGeometry x="80" y="340" width="120" height="60" as="geometry" />
        </mxCell>
        <mxCell id="3yqEsCJhF88DXLbGnoGs-60" value="Is log in" style="ellipse;whiteSpace=wrap;html=1;" vertex="1" parent="1">
          <mxGeometry x="240" y="585" width="120" height="60" as="geometry" />
        </mxCell>
        <mxCell id="3yqEsCJhF88DXLbGnoGs-61" value="create new account" style="ellipse;whiteSpace=wrap;html=1;" vertex="1" parent="1">
          <mxGeometry x="160" y="460" width="120" height="60" as="geometry" />
        </mxCell>
        <mxCell id="3yqEsCJhF88DXLbGnoGs-63" value="log in" style="ellipse;whiteSpace=wrap;html=1;" vertex="1" parent="1">
          <mxGeometry x="320" y="460" width="120" height="60" as="geometry" />
        </mxCell>
        <mxCell id="3yqEsCJhF88DXLbGnoGs-84" value="" style="endArrow=open;endSize=12;dashed=1;html=1;rounded=0;exitX=0.5;exitY=0;exitDx=0;exitDy=0;entryX=0.5;entryY=1;entryDx=0;entryDy=0;" edge="1" parent="1" source="3yqEsCJhF88DXLbGnoGs-63" target="3yqEsCJhF88DXLbGnoGs-57">
          <mxGeometry width="160" relative="1" as="geometry">
            <mxPoint x="970" y="360" as="sourcePoint" />
            <mxPoint x="1130" y="360" as="targetPoint" />
          </mxGeometry>
        </mxCell>
        <mxCell id="3yqEsCJhF88DXLbGnoGs-85" value="&amp;lt;&amp;lt;include&amp;gt;&amp;gt;" style="endArrow=open;endSize=12;dashed=1;html=1;rounded=0;exitX=0.5;exitY=0;exitDx=0;exitDy=0;entryX=0.5;entryY=1;entryDx=0;entryDy=0;" edge="1" parent="1" source="3yqEsCJhF88DXLbGnoGs-61" target="3yqEsCJhF88DXLbGnoGs-57">
          <mxGeometry width="160" relative="1" as="geometry">
            <mxPoint x="980" y="360.0000000000002" as="sourcePoint" />
            <mxPoint x="1140" y="360.0000000000002" as="targetPoint" />
          </mxGeometry>
        </mxCell>
        <mxCell id="3yqEsCJhF88DXLbGnoGs-91" value="" style="endArrow=open;endSize=12;dashed=1;html=1;rounded=0;exitX=0.5;exitY=0;exitDx=0;exitDy=0;entryX=0.5;entryY=1;entryDx=0;entryDy=0;" edge="1" parent="1" source="3yqEsCJhF88DXLbGnoGs-60" target="3yqEsCJhF88DXLbGnoGs-63">
          <mxGeometry width="160" relative="1" as="geometry">
            <mxPoint x="890" y="720.0000000000002" as="sourcePoint" />
            <mxPoint x="850" y="680.0000000000002" as="targetPoint" />
          </mxGeometry>
        </mxCell>
        <mxCell id="3yqEsCJhF88DXLbGnoGs-92" value="" style="endArrow=open;endSize=12;dashed=1;html=1;rounded=0;exitX=0.5;exitY=0;exitDx=0;exitDy=0;entryX=0.5;entryY=1;entryDx=0;entryDy=0;" edge="1" parent="1" source="3yqEsCJhF88DXLbGnoGs-60" target="3yqEsCJhF88DXLbGnoGs-61">
          <mxGeometry width="160" relative="1" as="geometry">
            <mxPoint x="900" y="730.0000000000002" as="sourcePoint" />
            <mxPoint x="860" y="690.0000000000002" as="targetPoint" />
          </mxGeometry>
        </mxCell>
        <mxCell id="3yqEsCJhF88DXLbGnoGs-98" value="&amp;lt;&amp;lt;extend&amp;gt;&amp;gt;" style="endArrow=classic;endSize=6;dashed=1;html=1;rounded=0;exitX=0.5;exitY=0;exitDx=0;exitDy=0;entryX=0.5;entryY=1;entryDx=0;entryDy=0;" edge="1" parent="1" source="3yqEsCJhF88DXLbGnoGs-55" target="3yqEsCJhF88DXLbGnoGs-53">
          <mxGeometry width="160" relative="1" as="geometry">
            <mxPoint x="890" y="640.0000000000002" as="sourcePoint" />
            <mxPoint x="850" y="490" as="targetPoint" />
          </mxGeometry>
        </mxCell>
        <mxCell id="3yqEsCJhF88DXLbGnoGs-99" value="" style="endArrow=classic;endSize=6;dashed=1;html=1;rounded=0;exitX=0.5;exitY=0;exitDx=0;exitDy=0;entryX=0.5;entryY=1;entryDx=0;entryDy=0;" edge="1" parent="1" source="3yqEsCJhF88DXLbGnoGs-54" target="3yqEsCJhF88DXLbGnoGs-53">
          <mxGeometry width="160" relative="1" as="geometry">
            <mxPoint x="900" y="650.0000000000002" as="sourcePoint" />
            <mxPoint x="860" y="690.0000000000002" as="targetPoint" />
          </mxGeometry>
        </mxCell>
        <mxCell id="3yqEsCJhF88DXLbGnoGs-105" style="endArrow=none;html=1;rounded=0;exitX=0;exitY=0.5;exitDx=0;exitDy=0;entryX=1;entryY=0.5;entryDx=0;entryDy=0;" edge="1" parent="1" source="3yqEsCJhF88DXLbGnoGs-53" target="3yqEsCJhF88DXLbGnoGs-56">
          <mxGeometry relative="1" as="geometry">
            <mxPoint x="790" y="210" as="sourcePoint" />
            <mxPoint x="790" y="250" as="targetPoint" />
          </mxGeometry>
        </mxCell>
        <mxCell id="3yqEsCJhF88DXLbGnoGs-106" style="endArrow=none;html=1;rounded=0;exitX=0;exitY=0.5;exitDx=0;exitDy=0;entryX=1;entryY=0.5;entryDx=0;entryDy=0;" edge="1" parent="1" source="3yqEsCJhF88DXLbGnoGs-56" target="3yqEsCJhF88DXLbGnoGs-57">
          <mxGeometry relative="1" as="geometry">
            <mxPoint x="800" y="220" as="sourcePoint" />
            <mxPoint x="800" y="260" as="targetPoint" />
          </mxGeometry>
        </mxCell>
        <mxCell id="3yqEsCJhF88DXLbGnoGs-107" style="endArrow=none;html=1;rounded=0;exitX=0;exitY=0.5;exitDx=0;exitDy=0;entryX=1;entryY=0.5;entryDx=0;entryDy=0;" edge="1" parent="1" source="3yqEsCJhF88DXLbGnoGs-49" target="3yqEsCJhF88DXLbGnoGs-53">
          <mxGeometry relative="1" as="geometry">
            <mxPoint x="810" y="230" as="sourcePoint" />
            <mxPoint x="810" y="270" as="targetPoint" />
          </mxGeometry>
        </mxCell>
        <mxCell id="3yqEsCJhF88DXLbGnoGs-108" style="endArrow=none;html=1;rounded=0;exitX=0.5;exitY=1;exitDx=0;exitDy=0;entryX=0.5;entryY=0;entryDx=0;entryDy=0;" edge="1" parent="1" source="3yqEsCJhF88DXLbGnoGs-47" target="3yqEsCJhF88DXLbGnoGs-49">
          <mxGeometry relative="1" as="geometry">
            <mxPoint x="820" y="240" as="sourcePoint" />
            <mxPoint x="820" y="280" as="targetPoint" />
          </mxGeometry>
        </mxCell>
        <mxCell id="3yqEsCJhF88DXLbGnoGs-109" style="endArrow=none;html=1;rounded=0;exitX=0;exitY=0.5;exitDx=0;exitDy=0;entryX=1;entryY=0.5;entryDx=0;entryDy=0;exitPerimeter=0;" edge="1" parent="1" source="3yqEsCJhF88DXLbGnoGs-114" target="3yqEsCJhF88DXLbGnoGs-49">
          <mxGeometry relative="1" as="geometry">
            <mxPoint x="880" y="370" as="sourcePoint" />
            <mxPoint x="790" y="550" as="targetPoint" />
          </mxGeometry>
        </mxCell>
        <mxCell id="3yqEsCJhF88DXLbGnoGs-110" value="" style="endArrow=block;endSize=10;endFill=0;dashed=1;html=1;rounded=0;exitX=0.5;exitY=1;exitDx=0;exitDy=0;entryX=0.5;entryY=0;entryDx=0;entryDy=0;" edge="1" parent="1" source="3yqEsCJhF88DXLbGnoGs-44" target="3yqEsCJhF88DXLbGnoGs-46">
          <mxGeometry width="160" relative="1" as="geometry">
            <mxPoint x="890" y="440" as="sourcePoint" />
            <mxPoint x="850.0000000000034" y="480" as="targetPoint" />
          </mxGeometry>
        </mxCell>
        <mxCell id="3yqEsCJhF88DXLbGnoGs-111" value="" style="endArrow=none;html=1;rounded=0;exitX=0;exitY=0.5;exitDx=0;exitDy=0;" edge="1" parent="1" source="3yqEsCJhF88DXLbGnoGs-46">
          <mxGeometry width="50" height="50" relative="1" as="geometry">
            <mxPoint x="570.0000000000016" y="180" as="sourcePoint" />
            <mxPoint x="680" y="170" as="targetPoint" />
          </mxGeometry>
        </mxCell>
        <mxCell id="3yqEsCJhF88DXLbGnoGs-114" value="&#xa;&#xa;&lt;span style=&quot;color: rgb(0, 0, 0); font-family: helvetica; font-size: 12px; font-style: normal; font-weight: 400; letter-spacing: normal; text-align: center; text-indent: 0px; text-transform: none; word-spacing: 0px; background-color: rgb(248, 249, 250); display: inline; float: none;&quot;&gt;add product to basket&lt;/span&gt;&#xa;&#xa;" style="shape=note;whiteSpace=wrap;html=1;backgroundOutline=1;darkOpacity=0.05;size=15;" vertex="1" parent="1">
          <mxGeometry x="880" y="340" width="120" height="60" as="geometry" />
        </mxCell>
      </root>
    </mxGraphModel>
  </diagram>
</mxfile>
